<?xml version="1.0" encoding="UTF-8" standalone="no"?>
<svg
   version="1.1"
   width="10.9648in"
   height="3.1400in"
   viewBox="0 0 789.4647 226.0811"
   id="svg19"
   sodipodi:docname="Akulaku PayLater.cdr"
   xmlns:inkscape="http://www.inkscape.org/namespaces/inkscape"
   xmlns:sodipodi="http://sodipodi.sourceforge.net/DTD/sodipodi-0.dtd"
   xmlns="http://www.w3.org/2000/svg"
   xmlns:svg="http://www.w3.org/2000/svg">
  <defs
     id="defs19" />
  <sodipodi:namedview
     id="namedview19"
     pagecolor="#ffffff"
     bordercolor="#000000"
     borderopacity="0.25"
     inkscape:showpageshadow="2"
     inkscape:pageopacity="0.0"
     inkscape:pagecheckerboard="0"
     inkscape:deskcolor="#d1d1d1"
     inkscape:document-units="in" />
  <g
     id="Layer1000">
    <path
       d="  M96.9636,1.1437 C116.2463,-1.6526 136.2986,0.7212 154.4325,7.7990 C172.3928,14.8446 188.5756,26.5830 200.6938,41.5952 C214.5462,58.5692 223.3148,79.5538 225.5368,101.3620 C226.9459,116.6667 225.6019,132.1451 220.9846,146.8319 C214.6003,167.5454 202.0485,186.2102 185.3673,200.0192 C168.2308,214.3051 146.8560,223.3339 124.6576,225.5560 C109.5154,226.9328 94.2322,225.6537 79.6971,221.1012 C59.6989,214.9989 41.5109,203.1842 27.8211,187.3701 C13.6545,171.1439 4.2573,150.8532 1.1897,129.5218 C-1.6610,110.2609 0.6584,90.2519 7.6496,72.0855 C14.8902,53.2796 27.3228,36.6418 43.1477,24.1770 C58.7126,11.9936 77.3774,3.8970 96.9636,1.1437 Z"
       style="fill-rule: evenodd; fill: #eb3223; "
       id="path1" />
    <path
       d="  M159.2450,18.3021 C168.5666,19.8629 176.5443,26.1606 180.3595,34.7884 C187.2532,50.1472 193.0956,66.6336 197.3119,82.9246 C200.9648,100.7334 202.6771,118.9972 203.1325,137.1634 C203.3168,142.1927 200.4551,146.7234 195.6752,148.3927 C189.5837,150.7773 182.4623,146.4524 181.2594,140.1766 C180.6956,136.7080 180.7933,133.0662 180.6197,129.5543 C178.2892,94.5008 170.0082,59.3604 155.2022,27.4286 C154.5192,25.8137 153.6629,23.9926 153.6306,22.2259 C153.9123,19.6463 156.6764,17.6516 159.2450,18.3021 Z"
       style="fill-rule: evenodd; fill: #ffffff; "
       id="path2" />
    <path
       d="  M305.2040,31.3308 C307.7838,32.7183 308.7159,35.0918 309.7675,37.6605 C315.6313,53.0739 321.5602,68.4763 327.5433,83.8460 C328.3781,86.3280 329.4403,88.6802 327.9767,91.1840 C326.0044,94.6959 320.0321,94.7500 318.3086,90.9456 C316.2818,86.8158 314.9376,82.3501 313.2142,78.0795 C304.7272,78.0256 296.2400,78.0902 287.7534,78.0471 C285.8672,82.3612 284.5772,86.9786 282.4529,91.1840 C280.4043,94.7934 274.6270,94.6307 272.7626,90.9238 C271.4080,88.4959 272.4593,86.5123 273.2397,84.1385 C278.6916,70.0911 284.1004,56.0112 289.4873,41.9315 C290.5929,39.1567 291.4818,36.0672 293.1619,33.5852 C295.8500,29.8783 301.3347,28.9894 305.2040,31.3308 Z Z M300.4458,44.9552 C303.2963,52.2720 306.0930,59.6098 308.9004,66.9478 C303.2532,66.9368 297.5950,66.9368 291.9370,66.9478 C294.3757,60.7260 296.7389,54.4720 299.1560,48.2505 C299.5787,47.1447 300.0124,46.0500 300.4458,44.9552 Z"
       style="fill-rule: evenodd; fill: #eb3223; "
       id="path3" />
    <path
       d="  M346.8045,30.9405 C348.5171,32.7290 348.4412,35.0594 348.5064,37.3681 C348.4738,49.2694 348.4520,61.1707 348.5064,73.0720 C355.8877,64.7907 363.3232,56.5531 370.6504,48.2180 C372.5148,46.1803 374.1515,44.3918 377.1973,44.8579 C381.5329,45.5191 383.3103,50.5267 380.7092,53.9086 C376.0808,59.5014 371.0406,64.7800 366.2715,70.2536 C370.4013,74.3619 374.4874,78.5024 378.6604,82.5562 C380.2972,84.3662 382.1182,85.6453 381.8580,88.3660 C382.0749,92.9508 376.2977,95.4764 372.8832,92.6472 C367.9731,88.3334 363.5941,83.3800 358.8791,78.8493 C354.6412,83.2607 350.8799,88.1598 346.4469,92.3547 C343.1301,95.6389 337.1578,92.9941 337.1793,88.3875 C336.9409,71.7930 337.2119,55.1115 337.0493,38.4954 C337.1360,36.2516 336.8757,33.0648 338.4584,31.2548 C340.5179,28.7510 344.5499,28.6210 346.8045,30.9405 Z"
       style="fill-rule: evenodd; fill: #eb3223; "
       id="path4" />
    <path
       d="  M451.6835,31.2548 C453.1251,32.9456 453.0059,35.3194 453.1033,37.4007 C453.0600,53.6698 453.0492,69.9286 453.1033,86.1980 C453.0167,88.7451 453.2118,91.0216 450.9464,92.7123 C447.8463,95.0643 442.6869,93.5579 442.1016,89.5040 C441.6573,82.6429 442.1557,75.7165 441.9173,68.8446 C441.4837,58.7210 441.7873,48.6190 441.6463,38.4954 C441.7655,36.0131 441.3538,32.7723 443.3263,30.9186 C445.7112,28.6100 449.4940,28.8051 451.6835,31.2548 Z"
       style="fill-rule: evenodd; fill: #eb3223; "
       id="path5" />
    <path
       d="  M525.7251,29.4773 C528.5865,30.2793 529.8330,32.3062 529.7571,35.2002 C529.8008,47.9037 529.7356,60.6287 529.7682,73.3320 C537.1388,65.0295 544.5850,56.7915 551.9230,48.4564 C553.4516,46.8849 554.8281,45.0530 557.1693,44.8146 C560.4102,44.3375 563.4778,47.2099 563.4126,50.4182 C563.5318,52.7813 561.9059,54.2552 560.5402,55.9570 C556.2697,60.6936 552.0207,65.4519 547.8259,70.2429 C552.5083,75.0556 557.4836,79.6404 562.0362,84.5613 C564.7891,87.6289 563.2175,92.8967 559.0985,93.6986 C556.1394,94.3383 554.3727,92.8208 552.4217,90.8913 C548.4222,86.8485 544.4984,82.7513 540.2061,79.0010 C536.7594,82.7946 533.3559,86.6423 529.9200,90.4470 C528.0663,92.3440 526.5163,94.2080 523.5682,93.7312 C519.9805,93.4169 518.5714,90.5880 518.6362,87.2820 C518.6688,69.9504 518.5929,52.5429 518.6688,35.2220 C518.4848,31.3958 522.0181,28.4908 525.7251,29.4773 Z"
       style="fill-rule: evenodd; fill: #eb3223; "
       id="path6" />
    <path
       d="  M102.9578,45.0530 C114.3497,45.2804 125.6331,48.7708 135.1065,55.1007 C146.4333,62.4931 154.7361,73.9065 158.7466,86.7941 C163.7757,102.6952 166.4097,119.4415 167.7754,136.0471 C167.9705,139.4939 168.5018,143.6562 166.9299,146.8319 C164.4805,152.2081 157.7711,155.1236 152.2538,152.7283 C148.7745,151.5036 147.2896,148.5227 144.8291,146.0407 C142.4986,146.0515 140.4502,148.7288 138.6184,149.9969 C124.1700,161.8656 103.3805,165.6377 85.5718,160.0664 C68.1860,154.9396 53.6940,141.3364 47.4184,124.3409 C44.3075,115.7779 42.8877,106.3155 44.0365,97.2431 C45.7491,82.1768 53.5533,67.8368 65.3569,58.3090 C75.8384,49.6811 89.4305,45.0745 102.9578,45.0530 Z"
       style="fill-rule: evenodd; fill: #ffffff; "
       id="path7" />
    <path
       d="  M401.4227,49.2802 C402.0188,57.3012 401.1625,65.4412 401.7585,73.4622 C402.2898,78.5564 406.7986,82.5129 411.8824,82.6429 C417.1176,82.4911 421.6809,78.5457 422.0600,73.2128 C422.4721,65.6796 421.9301,58.0924 422.2229,50.5482 C422.2662,48.0229 423.7619,46.0175 426.1898,45.3022 C429.5065,44.2182 433.3871,46.7979 433.2568,50.3857 C433.3871,57.9947 433.2786,65.6148 433.2894,73.2346 C433.2027,81.8406 427.3715,89.6558 419.3071,92.5391 C409.4219,96.2460 397.6939,91.8560 392.8922,82.4152 C389.2612,75.8901 390.7461,68.4762 390.4751,61.2574 C390.6810,57.0302 389.8357,52.1634 391.0604,48.1096 C393.3365,43.5463 400.3495,44.3049 401.4227,49.2802 Z"
       style="fill-rule: evenodd; fill: #eb3223; "
       id="path8" />
    <path
       d="  M483.3984,45.2154 C495.9068,43.7956 508.1443,53.0306 509.7917,65.5710 C510.3771,73.0502 510.3986,80.8002 510.1495,88.3009 C510.1821,91.5418 507.2227,94.1321 504.0360,93.8177 C501.6733,93.7964 500.4374,91.8235 498.8441,90.3818 C492.9477,93.4603 486.5094,94.7500 479.9625,93.1351 C468.9717,90.5987 460.9942,80.0957 461.4276,68.8337 C461.6011,56.6940 471.2805,46.2237 483.3984,45.2154 Z Z M480.6235,57.4206 C487.2030,54.5261 494.9422,57.7454 497.7927,64.2489 C500.7951,70.9586 497.5002,78.8820 490.7041,81.5808 C483.7887,84.6479 475.5835,80.4969 473.3181,73.4621 C471.1068,67.1647 474.6081,60.0216 480.6235,57.4206 Z"
       style="fill-rule: evenodd; fill: #eb3223; "
       id="path9" />
    <path
       d="  M582.9663,49.4753 C583.5409,57.3553 582.7930,65.3545 583.2480,73.2453 C583.6382,78.6431 588.5377,82.8380 593.9028,82.5995 C598.8022,82.3178 603.2571,78.1555 603.5714,73.2020 C604.2218,65.0295 603.1486,56.6290 604.0375,48.4998 C605.9777,44.0016 612.4377,43.9257 614.4105,48.4131 C615.2343,51.8165 614.7789,55.5994 614.8548,59.0894 C614.7248,64.4982 615.1365,69.9830 614.6382,75.3700 C613.5324,84.7672 605.5550,92.6039 596.1682,93.6445 C587.5621,94.8367 578.7392,90.4688 574.5876,82.8272 C570.9891,76.7790 572.2030,70.1781 572.0297,63.4250 C572.2030,58.4719 571.5526,53.2689 572.3981,48.3913 C574.3925,43.4704 582.0341,44.2616 582.9663,49.4753 Z"
       style="fill-rule: evenodd; fill: #eb3223; "
       id="path10" />
    <path
       d="  M94.8501,67.4789 C106.5237,65.3220 118.6745,68.8013 127.0529,77.2774 C137.9572,87.5856 140.3417,104.7003 135.1391,118.3794 C130.8683,129.4892 120.7988,137.4995 109.2770,140.0248 C96.6926,142.8106 83.1331,138.2255 74.6137,128.6221 C62.5714,115.3225 62.6147,92.7016 74.4075,79.2720 C79.6320,73.1587 86.9593,68.9856 94.8501,67.4789 Z"
       style="fill-rule: evenodd; fill: #eb3223; "
       id="path11" />
    <path
       d="  M278.5723,107.7678 C283.9487,107.3018 289.4221,107.7134 294.8204,107.5944 C302.0066,107.6596 309.9407,106.9656 316.7478,109.6104 C329.4077,114.2388 337.9816,126.8881 337.3963,140.4043 C337.0708,155.6008 325.1262,168.9545 309.9951,170.7755 C302.4507,171.3283 294.8094,170.8512 287.2440,171.0028 C287.1462,178.8829 287.3846,186.7847 287.1680,194.6537 C287.0595,197.8191 285.6504,200.6478 282.5614,201.8186 C278.0413,203.7370 272.5461,200.7020 272.3834,195.6404 C272.0798,185.1695 272.6759,174.6777 272.0149,164.1960 C272.4593,147.6122 272.5787,130.9309 271.9389,114.3471 C272.2859,110.9327 275.1908,108.1582 278.5723,107.7678 Z Z M287.2440,123.3111 C292.6633,123.3437 298.0939,123.2785 303.5134,123.3003 C307.1767,123.3329 310.6670,123.7011 313.8429,125.6956 C319.4359,129.1425 322.7417,135.7869 321.3652,142.3338 C320.0754,149.3683 313.8970,154.8964 306.7325,155.2320 C300.2400,155.4165 293.7365,155.1994 287.2440,155.2864 C287.2329,144.6316 287.2329,133.9659 287.2440,123.3111 Z"
       style="fill-rule: evenodd; fill: #eb3223; "
       id="path12" />
    <path
       d="  M505.5754,110.6401 C507.6238,112.9705 507.4720,115.7886 507.5697,118.7044 C507.4938,139.6671 507.5912,160.6409 507.5153,181.6036 C507.6238,183.2078 507.3095,184.5194 508.6752,185.6682 C516.4578,186.2535 524.3812,185.7659 532.1961,185.8741 C535.0686,185.9936 539.1765,185.3865 541.4418,187.5000 C546.1351,191.4454 544.5091,201.2114 537.6697,201.5583 C528.6301,201.7967 519.5577,201.5042 510.5178,201.6560 C506.1389,201.5801 501.7925,202.1546 497.9553,199.6072 C493.5438,196.8324 491.5061,192.1174 491.5605,187.0014 C491.5061,164.2394 491.5928,141.4341 491.5169,118.6611 C491.5820,115.7453 491.5494,112.7647 493.6630,110.4775 C496.7524,107.0634 502.5837,107.1392 505.5754,110.6401 Z"
       style="fill-rule: evenodd; fill: #eb3223; "
       id="path13" />
    <path
       d="  M631.2220,108.2881 C635.7527,106.1527 641.5514,109.3069 642.0719,114.2929 C642.4728,119.7125 642.1041,125.1862 642.2126,130.6165 C647.3612,130.7468 652.6075,130.3022 657.7342,130.8660 C661.3112,131.4295 663.8258,134.6270 663.9450,138.1933 C664.2811,142.2035 661.0077,146.2466 656.8997,146.2899 C652.0111,146.5176 647.1120,146.2681 642.2126,146.3550 C642.2777,155.9366 642.1152,165.5293 642.2559,175.1001 C642.2777,180.7366 646.7977,185.7008 652.4772,185.9285 C655.4363,186.3728 659.0459,185.7659 661.3653,187.8903 C665.2674,191.1744 664.8990,197.7321 660.6067,200.5179 C657.5391,202.5230 652.7482,201.9051 649.3015,201.4934 C636.8364,199.8675 626.8320,188.7247 626.5395,176.1625 C626.4310,156.2943 626.5395,136.3829 626.4851,116.5150 C626.3011,112.8188 627.8401,109.8596 631.2220,108.2881 Z"
       style="fill-rule: evenodd; fill: #eb3223; "
       id="path14" />
    <path
       d="  M381.5436,131.0284 C397.5313,133.1206 410.6358,146.9511 411.5682,163.0905 C411.7414,172.1412 411.5137,181.1917 411.6546,190.2421 C411.5571,193.0170 411.9905,195.9222 410.1046,198.2092 C407.8392,201.1465 403.8072,201.8186 400.4580,200.5503 C398.4202,199.7263 397.2385,197.4178 395.9813,195.7269 C383.7223,202.9674 368.0382,203.2600 356.2452,194.9031 C342.7940,185.7115 337.4722,167.5454 343.8346,152.5113 C349.7202,137.7054 365.7946,128.5682 381.5436,131.0284 Z Z M370.1302,147.5583 C376.6014,145.1843 383.9825,146.7666 389.1526,151.2215 C395.7647,156.8149 397.9216,166.7106 393.9437,174.4608 C390.1501,182.1997 381.3593,186.7955 372.8290,185.0615 C363.2040,183.3596 356.1154,173.9619 357.0364,164.2501 C357.7303,156.6845 362.9656,150.0508 370.1302,147.5583 Z"
       style="fill-rule: evenodd; fill: #eb3223; "
       id="path15" />
    <path
       d="  M573.3955,131.1477 C589.1664,128.3185 605.4900,137.1960 611.7007,151.9370 C615.6244,160.7494 614.3998,168.9979 614.5622,178.3193 C614.4647,183.7278 614.8332,189.1800 614.4214,194.5670 C613.9338,198.7509 610.0316,201.6774 605.8692,201.1139 C602.1405,200.9514 600.7207,198.4150 598.7047,195.7595 C588.3534,201.8727 575.5416,203.0975 564.5288,198.0031 C551.9557,192.2910 543.5881,179.1757 544.0649,165.3126 C544.0323,148.6094 556.9415,133.7060 573.3955,131.1477 Z Z M572.8317,147.5799 C579.7905,145.0542 587.8440,146.9186 592.9926,152.2083 C598.3036,157.3673 600.2546,165.3993 597.6317,172.3796 C594.9541,180.2597 587.0959,185.6682 578.7825,185.4082 C569.8837,185.2889 561.8625,178.3845 560.2042,169.6805 C558.1882,160.4132 563.9329,150.6472 572.8317,147.5799 Z"
       style="fill-rule: evenodd; fill: #eb3223; "
       id="path16" />
    <path
       d="  M713.4472,132.5675 C727.6572,137.2393 737.9869,151.3952 737.3472,166.4507 C737.2931,170.5804 733.6295,173.9295 729.5105,173.7021 C720.4598,173.7454 711.3877,173.7454 702.3263,173.7021 C698.1965,173.8646 694.5870,170.5479 694.4678,166.4074 C694.1319,162.3861 697.3295,158.4622 701.4156,158.3104 C707.7566,158.0828 714.0973,158.4189 720.4383,158.1912 C717.2949,152.7609 713.0244,148.3709 706.7270,146.9185 C697.6545,144.5665 688.0293,149.6500 684.3224,158.1261 C680.7890,165.8221 682.9567,175.0460 689.2869,180.5848 C696.6465,187.3483 708.4829,186.8822 716.5578,181.6795 C719.4843,179.7503 723.2457,179.5226 726.1289,181.6795 C729.6948,184.4543 730.2043,189.9605 727.0285,193.2339 C723.0287,196.8435 717.5658,199.0219 712.3739,200.2036 C704.3206,201.7644 695.5302,201.6016 687.9534,198.1767 C675.8896,192.9089 667.4676,180.7040 667.1100,167.5021 C666.5790,156.9555 670.9361,146.5827 678.8705,139.6238 C688.1270,131.2129 701.6433,128.7088 713.4472,132.5675 Z"
       style="fill-rule: evenodd; fill: #eb3223; "
       id="path17" />
    <path
       d="  M757.4754,130.9634 C760.3261,131.6679 761.4752,133.7925 763.1767,135.9169 C769.0624,132.5353 776.6933,129.9553 783.5108,130.9201 C789.2447,132.1884 791.1417,138.9519 787.8575,143.5259 C785.6354,146.3876 782.5571,146.1489 779.3162,146.7019 C772.7042,147.3521 766.9703,152.0238 764.5317,158.1261 C763.3070,161.0526 763.1767,164.3371 763.0683,167.4695 C762.9816,176.5202 763.1875,185.5923 763.0360,194.6430 C763.1008,199.1847 758.6568,202.3064 754.3645,201.7644 C750.7552,201.3524 747.6010,198.4043 747.6551,194.6322 C747.5359,175.7505 747.5144,157.0532 747.6336,138.1714 C747.4059,133.1206 752.8362,129.5436 757.4754,130.9634 Z"
       style="fill-rule: evenodd; fill: #eb3223; "
       id="path18" />
    <path
       d="  M424.7700,132.9362 C427.9675,133.9117 429.0515,136.4481 430.4172,139.1903 C436.2593,151.9046 442.2208,164.5755 448.1391,177.2573 C453.9704,164.4997 460.0078,151.8287 465.8609,139.0711 C467.0641,136.6324 468.1481,134.3453 470.8144,133.2180 C474.7057,131.4513 479.6048,133.2287 481.2089,137.2500 C482.5313,140.3502 481.5233,143.0057 480.2119,145.8564 C468.5057,170.7104 457.0379,195.7051 445.3643,220.5051 C443.2071,225.6862 436.2159,226.8784 432.3790,222.8571 C429.7127,220.1582 429.7993,216.3538 431.3494,213.1019 C433.9613,207.3247 436.8556,201.6775 439.3268,195.8354 C431.4901,178.9373 423.5994,162.0607 415.7086,145.1952 C414.7546,142.9624 413.8549,140.8703 414.6138,138.4099 C415.7193,134.0417 420.4992,131.4728 424.7700,132.9362 Z"
       style="fill-rule: evenodd; fill: #eb3223; "
       id="path19" />
  </g>
</svg>
